<?xml version="1.0" standalone="no"?>
<!DOCTYPE svg PUBLIC "-//W3C//DTD SVG 20010904//EN"
 "http://www.w3.org/TR/2001/REC-SVG-20010904/DTD/svg10.dtd">
<svg version="1.0" xmlns="http://www.w3.org/2000/svg"
 width="192.000000pt" height="192.000000pt" viewBox="0 0 192.000000 192.000000"
 preserveAspectRatio="xMidYMid meet">
<metadata>
Created by potrace 1.11, written by Peter Selinger 2001-2013
</metadata>
<g transform="translate(0.000000,192.000000) scale(0.100000,-0.100000)"
fill="#000000" stroke="none">
<path d="M895 1889 c-22 -12 -78 -44 -125 -72 -47 -27 -101 -59 -120 -70 -19
-11 -100 -58 -180 -105 -80 -46 -165 -96 -190 -110 -91 -51 -120 -73 -135
-101 -22 -44 -23 -897 0 -941 13 -25 109 -89 265 -178 19 -10 141 -82 270
-158 291 -171 274 -168 440 -70 63 38 131 78 150 89 19 10 84 48 143 84 60 35
123 72 140 81 107 59 196 115 213 133 18 20 19 44 22 478 2 432 1 458 -17 487
-16 27 -79 68 -264 173 -18 10 -126 74 -242 142 -305 178 -298 176 -370 138z
m509 -525 c9 -8 16 -31 16 -49 0 -67 15 -65 -460 -65 -475 0 -460 -2 -460 65
0 67 -15 65 460 65 376 0 430 -2 444 -16z m-422 -345 c50 -23 101 -41 115 -41
17 0 39 15 67 46 45 49 73 57 101 30 34 -34 -14 -127 -83 -160 -72 -34 -122
-28 -250 32 -110 51 -119 51 -167 -2 -51 -55 -91 -63 -114 -23 -13 24 -13 30
6 65 20 39 80 89 118 98 47 11 120 -5 207 -45z m422 -365 c9 -8 16 -31 16 -49
0 -67 15 -65 -460 -65 -475 0 -458 -2 -458 65 0 67 -17 65 458 65 376 0 430
-2 444 -16z"/>
</g>
</svg>
