<svg xmlns="http://www.w3.org/2000/svg" width="113.125" height="41.031" viewBox="0 0 113.125 41.031">
  <metadata><?xpacket begin="﻿" id="W5M0MpCehiHzreSzNTczkc9d"?>
<x:xmpmeta xmlns:x="adobe:ns:meta/" x:xmptk="Adobe XMP Core 5.6-c138 79.159824, 2016/09/14-01:09:01        ">
   <rdf:RDF xmlns:rdf="http://www.w3.org/1999/02/22-rdf-syntax-ns#">
      <rdf:Description rdf:about=""/>
   </rdf:RDF>
</x:xmpmeta>
                                                                                                    
                                                                                                    
                                                                                                    
                                                                                                    
                                                                                                    
                                                                                                    
                                                                                                    
                                                                                                    
                                                                                                    
                                                                                                    
                                                                                                    
                                                                                                    
                                                                                                    
                                                                                                    
                                                                                                    
                                                                                                    
                                                                                                    
                                                                                                    
                                                                                                    
                                                                                                    
                           
<?xpacket end="w"?></metadata>
<defs>
    <style>
      .cls-1 {
        fill: #fff;
        fill-rule: evenodd;
      }
    </style>
  </defs>
  <path class="cls-1" d="M113.692,81.932h-0.926l-1.962,3.2-1.951-3.2h-0.976l2.469,4v3h0.847v-3Zm3.755,3.5a3.555,3.555,0,1,0,3.555-3.6A3.457,3.457,0,0,0,117.447,85.432Zm0.9,0a2.662,2.662,0,1,1,2.659,2.8A2.689,2.689,0,0,1,118.343,85.432Zm16.729-3.5h-0.846v3.91c0,1.59-.707,2.38-1.852,2.38-1.305,0-2.042-.92-2.042-2.44v-3.85h-0.846v4.01a2.752,2.752,0,0,0,2.888,3.08c1.424,0,2.7-.87,2.7-3.01v-4.08Zm17.028,7v-7h-0.8v5.519l-4.352-5.519h-0.677v7h0.8v-5.5l4.351,5.5H152.1Zm5.577,0h4.033v-0.8h-3.186v-2.34h2.788v-0.8h-2.788v-2.26h3.086v-0.8h-3.933v7Zm9.212,0h4.032v-0.8h-3.186v-2.34h2.788v-0.8h-2.788v-2.26h3.087v-0.8h-3.933v7Zm9.211,0h0.109c0.588,0,1.245.02,1.713,0.02,2.659,0,3.993-1.62,3.993-3.61,0-1.83-1.125-3.44-3.913-3.44-0.568,0-1.325.03-1.783,0.03H176.1v7Zm1.882-6.229c2.021,0,3.037,1.12,3.037,2.64a2.736,2.736,0,0,1-3.067,2.81c-0.12,0-.548-0.01-1.006-0.02v-5.4C177.3,82.722,177.564,82.7,177.982,82.7Zm23.2-.77h-0.826L198.774,87.5l-1.852-5.569h-0.817L194.3,87.5l-1.623-5.569h-0.956l2.111,7h0.777l1.872-5.629,1.911,5.629h0.777Zm4.632,7h4.032v-0.8h-3.186v-2.34h2.788v-0.8h-2.788v-2.26h3.087v-0.8h-3.933v7Zm9.211-.01c0.408,0.02,1.255.04,1.872,0.04,1.444,0,2.529-.61,2.529-2.03a1.577,1.577,0,0,0-1.444-1.66v-0.02a1.626,1.626,0,0,0,1.195-1.62c0-.97-0.578-1.73-2.24-1.73-0.648,0-1.524.03-1.912,0.04v6.979ZM217,85.742c1.006,0,1.584.4,1.584,1.14,0,0.86-.608,1.28-1.633,1.28-0.4,0-.847-0.02-1.076-0.04v-2.38H217Zm-0.079-3.04a1.153,1.153,0,0,1,1.414,1.12,1.2,1.2,0,0,1-1.345,1.17h-1.115v-2.26C216.121,82.722,216.549,82.7,216.918,82.7ZM108.3,49.86a1.672,1.672,0,0,1,1.772-1.8c1.141,0,1.666.463,1.714,1.756l-0.024,14.151a5.768,5.768,0,0,0,5.821,5.909,5.608,5.608,0,0,0,5.822-5.909V49.822a1.5,1.5,0,0,1,1.735-1.769,1.683,1.683,0,0,1,1.75,1.813V63.974c0,7.665-5.186,9.434-9.3,9.434s-9.295-1.769-9.295-9.434V49.86ZM152.454,71.6a1.671,1.671,0,0,1-1.771,1.8c-1.142,0-1.666-.464-1.715-1.757l0.025-14.151a5.769,5.769,0,0,0-5.822-5.908,5.606,5.606,0,0,0-5.821,5.908V71.639a1.505,1.505,0,0,1-1.735,1.769,1.684,1.684,0,0,1-1.751-1.812V57.488c0-7.666,5.186-9.435,9.295-9.435s9.3,1.769,9.3,9.435V71.6ZM202.406,49.71A1.533,1.533,0,0,1,204.055,48h6.069C217.562,48,221,53.689,221,60.383c0,7.585-3.749,12.973-10.451,12.973h-6.49a1.533,1.533,0,0,1-1.649-1.71V49.71Zm3.486,20.107h4.066c5.855,0,7.553-4.243,7.553-9.434,0-5.227-1.627-9.434-7.553-9.434h-4.066V69.817Zm-42.3.67h8.853a1.462,1.462,0,1,1,0,2.92H162.138a1.542,1.542,0,0,1-1.67-1.709V49.762a1.542,1.542,0,0,1,1.67-1.709h10.309a1.461,1.461,0,1,1,0,2.92h-8.853v8.3h8.178a1.462,1.462,0,1,1,0,2.921h-8.178v8.3Zm20.969,0h8.853a1.462,1.462,0,1,1,0,2.92H183.107a1.542,1.542,0,0,1-1.67-1.709V49.762a1.542,1.542,0,0,1,1.67-1.709h10.309a1.461,1.461,0,1,1,0,2.92h-8.853v8.3h8.178a1.462,1.462,0,1,1,0,2.921h-8.178v8.3Z" transform="translate(-107.875 -48)"/>
</svg>
