<svg 
 xmlns="http://www.w3.org/2000/svg"
 xmlns:xlink="http://www.w3.org/1999/xlink"
 width="73px" height="65px">
<path fill-rule="evenodd"  fill="rgb(255, 255, 255)"
 d="M48.418,63.911 L48.310,63.896 L24.582,60.452 L-0.001,64.022 L-0.001,15.027 L24.582,11.458 L24.690,11.473 L25.443,11.776 C25.441,11.720 25.430,11.660 25.430,11.606 C25.430,8.406 26.703,5.502 28.771,3.406 C30.851,1.310 33.706,0.004 36.871,0.004 C40.035,0.004 42.889,1.310 44.970,3.406 C47.038,5.502 48.322,8.406 48.322,11.606 C48.322,12.535 48.089,13.629 47.700,14.806 L48.946,14.806 L48.946,14.840 L73.000,11.347 L73.000,60.342 L48.418,63.911 ZM23.917,13.109 L1.520,16.362 L1.520,62.245 L23.917,58.993 L23.917,13.109 ZM40.500,7.929 C39.571,6.993 38.287,6.410 36.871,6.410 C35.454,6.410 34.171,6.993 33.242,7.929 C32.312,8.870 31.738,10.171 31.738,11.606 C31.738,13.040 32.312,14.346 33.242,15.282 C34.171,16.223 35.454,16.806 36.871,16.806 C38.287,16.806 39.571,16.223 40.500,15.282 C41.429,14.346 42.005,13.040 42.005,11.606 C42.005,10.171 41.429,8.870 40.500,7.929 ZM47.426,16.329 L47.150,16.288 C44.913,21.669 39.978,28.247 36.871,30.615 C32.375,26.915 26.568,18.591 25.589,13.100 L25.437,13.137 L25.437,59.020 L47.426,62.212 L47.426,16.329 ZM71.480,13.123 L48.946,16.395 L48.946,62.279 L71.480,59.006 L71.480,13.123 ZM41.997,36.243 L31.003,36.243 L31.003,34.703 L41.997,34.703 L41.997,36.243 Z"/>
</svg>