<svg 
 xmlns="http://www.w3.org/2000/svg"
 xmlns:xlink="http://www.w3.org/1999/xlink"
 width="45px" height="67px">
<path fill-rule="evenodd"  fill="rgb(255, 255, 255)"
 d="M42.188,67.000 L2.812,67.000 C1.258,67.000 0.000,65.751 0.000,64.208 L0.000,2.792 C0.000,1.249 1.258,-0.000 2.812,-0.000 L42.188,-0.000 C43.742,-0.000 45.000,1.249 45.000,2.792 L45.000,64.208 C45.000,65.751 43.742,67.000 42.188,67.000 ZM43.000,2.000 L2.000,2.000 L2.000,65.000 L43.000,65.000 L43.000,2.000 ZM8.000,11.000 L37.000,11.000 C37.775,11.000 38.000,11.228 38.000,12.000 L38.000,47.000 C38.000,48.174 37.337,48.851 36.563,48.851 L37.000,49.000 L8.000,49.000 C7.224,49.070 7.008,47.940 7.000,47.000 L7.000,12.000 C7.000,11.228 7.220,11.000 8.000,11.000 ZM36.000,13.000 L21.008,13.000 L29.570,27.720 L36.000,16.667 L36.000,13.000 ZM25.379,24.539 L19.506,24.539 C19.495,24.566 19.495,24.596 19.479,24.623 L16.545,29.669 C16.562,29.694 16.584,29.711 16.601,29.735 L19.539,34.781 C19.567,34.779 19.589,34.765 19.622,34.765 L25.494,34.765 C25.505,34.737 25.505,34.710 25.521,34.683 L28.460,29.629 C28.444,29.604 28.416,29.596 28.400,29.569 L25.461,24.522 C25.433,24.525 25.406,24.539 25.379,24.539 ZM36.000,20.530 L27.718,34.765 L36.000,34.765 L36.000,20.530 ZM36.000,47.000 L36.000,36.695 L20.649,36.695 L26.646,47.000 L36.000,47.000 ZM9.000,47.000 L24.399,47.000 L15.431,31.586 L9.000,42.642 L9.000,47.000 ZM9.000,38.776 L17.282,24.539 L9.000,24.539 L9.000,38.776 ZM9.000,22.608 L24.351,22.608 L18.762,13.000 L9.000,13.000 L9.000,22.608 ZM22.500,54.010 C23.876,54.010 24.997,55.126 24.997,56.500 C24.997,57.874 23.876,58.990 22.500,58.990 C21.120,58.990 20.003,57.874 20.003,56.500 C20.003,55.126 21.120,54.010 22.500,54.010 Z"/>
</svg>