<svg 
 xmlns="http://www.w3.org/2000/svg"
 xmlns:xlink="http://www.w3.org/1999/xlink"
 width="66px" height="71px">
<path fill-rule="evenodd"  fill="rgb(255, 255, 255)"
 d="M49.579,23.144 C45.780,20.081 40.753,12.815 40.753,8.774 C40.753,6.355 41.734,4.160 43.330,2.575 C44.935,0.991 47.138,0.004 49.579,0.004 C52.021,0.004 54.223,0.991 55.828,2.575 C57.424,4.160 58.415,6.355 58.415,8.774 C58.415,12.811 52.756,20.772 49.579,23.144 ZM53.540,8.774 C53.540,7.689 53.097,6.706 52.379,5.995 C51.663,5.287 50.672,4.847 49.579,4.847 C48.486,4.847 47.496,5.287 46.779,5.995 C46.062,6.706 45.619,7.689 45.619,8.774 C45.619,9.859 46.062,10.846 46.779,11.553 C47.496,12.264 48.486,12.705 49.579,12.705 C50.672,12.705 51.663,12.264 52.379,11.553 C53.097,10.846 53.540,9.859 53.540,8.774 ZM29.649,44.276 C25.859,41.220 20.842,33.970 20.842,29.937 C20.842,27.524 21.821,25.334 23.414,23.752 C25.015,22.171 27.213,21.187 29.649,21.187 C32.085,21.187 34.282,22.171 35.884,23.752 C37.477,25.334 38.465,27.524 38.465,29.937 C38.465,33.966 32.819,41.910 29.649,44.276 ZM33.602,29.937 C33.602,28.855 33.159,27.874 32.443,27.164 C31.728,26.458 30.739,26.018 29.649,26.018 C28.559,26.018 27.571,26.458 26.855,27.164 C26.139,27.874 25.697,28.855 25.697,29.937 C25.697,31.019 26.139,32.005 26.855,32.711 C27.571,33.420 28.559,33.860 29.649,33.860 C30.739,33.860 31.728,33.420 32.443,32.711 C33.159,32.005 33.602,31.019 33.602,29.937 ZM33.604,7.609 C33.489,7.717 33.354,7.829 33.184,7.965 C32.800,8.273 31.201,10.171 30.652,9.879 C30.296,9.690 30.580,9.343 30.459,9.064 C30.353,8.818 30.104,8.668 29.972,8.445 C29.870,8.273 29.727,8.029 29.589,7.771 C28.841,7.850 28.106,7.970 27.376,8.100 C27.582,8.492 27.802,8.751 27.244,9.172 C26.217,9.948 25.620,8.610 24.787,8.768 C23.894,8.938 23.568,9.947 22.568,10.073 C21.676,10.185 20.363,10.284 20.362,11.460 C20.680,11.563 20.995,11.650 21.340,11.693 C21.370,12.164 21.425,12.728 21.264,13.169 C22.450,13.369 22.140,12.809 22.465,12.078 C22.777,11.374 23.588,11.474 24.014,10.897 C24.426,10.338 24.264,9.518 25.273,9.897 C25.872,10.122 26.008,10.693 26.799,10.590 C26.932,10.875 26.919,11.267 26.830,11.563 C27.770,11.588 27.884,12.047 28.329,12.707 C28.589,13.092 29.397,14.254 28.230,14.293 C27.618,14.314 27.865,13.941 27.444,13.661 C26.966,13.343 27.081,13.519 26.536,13.610 C25.794,13.734 24.777,13.590 25.495,14.413 C26.061,15.060 26.935,15.193 25.702,15.690 C25.432,15.799 24.955,16.036 24.697,16.094 C24.089,16.232 24.317,15.948 23.857,15.919 C22.566,15.838 23.725,16.907 22.849,17.482 C22.272,17.860 21.638,17.813 21.076,18.327 C20.584,18.777 20.057,19.291 19.608,19.780 C19.032,20.407 18.960,21.147 18.498,21.795 C17.990,22.507 17.469,22.433 17.533,23.420 C17.571,24.011 17.797,25.114 16.924,25.314 C16.841,24.580 17.215,23.968 16.929,23.320 C16.666,22.725 16.068,22.427 15.385,22.512 C14.506,22.621 12.642,23.894 12.129,24.600 C11.621,25.301 10.742,27.612 11.320,28.438 C12.196,29.691 13.325,26.798 14.361,26.851 C14.873,27.934 13.649,28.640 13.787,29.628 C14.784,29.964 15.690,30.062 15.187,31.449 L15.390,31.850 C15.310,33.094 15.553,33.607 16.906,33.356 C17.780,33.194 18.621,32.873 19.411,32.431 C19.425,32.423 19.444,32.409 19.459,32.400 C20.952,37.342 25.814,43.974 29.648,47.060 C31.435,45.726 33.867,42.928 35.959,39.831 C36.425,39.903 36.765,39.967 37.256,40.454 C38.713,41.894 38.198,43.170 37.002,44.671 C36.050,45.864 35.367,47.514 35.100,49.011 C34.940,49.907 35.302,50.594 34.425,51.247 C33.748,51.751 33.062,51.752 32.578,52.525 C32.156,53.198 32.208,54.107 31.796,54.759 C31.430,55.339 30.701,55.924 30.227,56.413 C30.011,56.635 29.699,57.072 29.418,57.216 C28.876,57.494 28.602,57.056 28.630,57.949 C28.652,58.664 29.048,58.470 28.531,59.123 C28.265,59.460 27.909,59.738 27.651,60.073 C26.921,61.024 26.910,61.666 27.115,62.761 C27.219,63.313 27.073,63.850 27.141,64.367 C27.216,64.934 27.816,65.383 27.710,65.957 C26.186,66.203 25.134,64.373 24.868,63.162 C24.516,61.553 24.023,60.010 23.781,58.346 C23.546,56.731 22.872,55.391 22.872,53.628 C22.872,51.945 22.953,50.402 21.757,49.213 C20.845,48.306 19.564,47.913 19.004,46.728 C18.645,45.969 18.794,45.300 18.603,44.495 C18.396,43.626 17.718,43.396 17.081,42.918 C15.840,41.984 15.915,40.075 16.421,38.775 C16.766,37.887 18.699,35.315 17.846,34.330 C17.336,33.740 16.431,34.505 15.890,34.364 C15.516,34.267 14.850,33.634 14.497,33.439 C14.391,32.541 13.897,32.407 13.081,32.235 C12.640,31.222 12.201,30.748 11.143,30.624 C9.989,30.489 9.791,29.920 9.194,29.068 C8.441,27.993 8.687,27.683 8.820,26.431 C8.916,25.521 9.139,23.967 8.800,23.132 C7.731,23.248 8.281,25.485 7.013,25.111 C6.904,24.064 7.488,23.526 7.809,22.623 C8.062,21.911 7.954,21.045 8.132,20.332 C8.217,19.994 8.353,19.599 8.523,19.213 C4.372,24.366 1.875,30.843 1.875,37.901 C1.875,54.647 15.812,68.222 33.005,68.222 C48.729,68.222 61.695,56.856 63.801,42.106 C63.403,43.987 63.050,44.989 63.311,44.081 C63.157,44.375 62.608,47.107 62.483,47.406 C61.890,48.817 60.993,50.059 60.104,51.421 C59.233,52.753 58.635,54.429 57.324,55.418 C56.659,55.919 56.096,56.297 55.529,55.635 C54.985,55.000 54.921,54.000 55.147,53.227 C55.385,52.415 55.949,51.712 56.163,50.918 C56.371,50.144 56.419,49.201 56.518,48.410 C56.628,47.512 56.264,46.838 56.236,46.001 C56.207,45.094 56.757,44.443 56.944,43.587 C57.140,42.691 57.371,41.865 57.472,40.961 C57.601,39.801 57.453,39.648 56.821,38.780 C56.294,38.057 55.955,37.318 56.130,36.467 C56.267,35.803 56.949,34.765 56.334,34.169 C55.590,34.838 55.027,34.030 54.389,33.755 C53.587,33.410 53.486,33.921 52.723,34.283 C52.152,34.555 51.216,34.760 50.599,34.886 C49.853,35.039 49.179,34.885 48.684,34.335 C47.813,33.366 46.744,32.212 46.000,31.175 C45.771,30.855 45.696,30.450 45.522,30.142 C45.331,29.802 44.830,29.557 44.686,29.269 C44.353,28.600 45.222,27.733 45.319,26.933 C45.495,25.492 44.188,23.634 44.832,22.336 C44.953,22.091 45.204,21.893 45.453,21.687 C46.832,23.366 48.265,24.846 49.578,25.903 C51.035,24.815 52.923,22.755 54.706,20.353 C54.741,20.366 54.767,20.388 54.804,20.400 C54.951,19.131 57.935,21.064 56.720,18.628 C56.606,18.399 56.468,18.209 56.323,18.030 C56.691,17.465 57.040,16.893 57.375,16.320 C62.703,22.025 65.979,29.581 65.979,37.901 C65.979,55.639 51.216,70.019 33.005,70.019 C14.794,70.019 0.031,55.639 0.031,37.901 C0.031,20.163 14.794,5.783 33.005,5.783 C35.111,5.783 37.164,5.995 39.160,6.363 C39.035,6.947 38.984,7.554 38.961,8.169 C37.221,7.843 35.435,7.643 33.604,7.609 Z"/>
</svg>