<svg xmlns="http://www.w3.org/2000/svg" width="42.06" height="48" viewBox="0 0 42.06 48">
  <metadata><?xpacket begin="﻿" id="W5M0MpCehiHzreSzNTczkc9d"?>
<x:xmpmeta xmlns:x="adobe:ns:meta/" x:xmptk="Adobe XMP Core 5.6-c138 79.159824, 2016/09/14-01:09:01        ">
   <rdf:RDF xmlns:rdf="http://www.w3.org/1999/02/22-rdf-syntax-ns#">
      <rdf:Description rdf:about=""/>
   </rdf:RDF>
</x:xmpmeta>
                                                                                                    
                                                                                                    
                                                                                                    
                                                                                                    
                                                                                                    
                                                                                                    
                                                                                                    
                                                                                                    
                                                                                                    
                                                                                                    
                                                                                                    
                                                                                                    
                                                                                                    
                                                                                                    
                                                                                                    
                                                                                                    
                                                                                                    
                                                                                                    
                                                                                                    
                                                                                                    
                           
<?xpacket end="w"?></metadata>
<defs>
    <style>
      .cls-1 {
        fill: #fff;
        fill-rule: evenodd;
      }
    </style>
  </defs>
  <path id="image_copy" data-name="image copy" class="cls-1" d="M2712.6,32.906l-18.11-10.53a2.9,2.9,0,0,0-2.92,0l-18.1,10.53a2.938,2.938,0,0,0-1.46,2.552V56.518a2.938,2.938,0,0,0,1.46,2.552l18.1,10.53a2.9,2.9,0,0,0,2.92,0l18.11-10.53a2.959,2.959,0,0,0,1.46-2.552V35.459A2.959,2.959,0,0,0,2712.6,32.906Zm-8.61,22.062A1.064,1.064,0,0,1,2702.9,56h-19.8a1.064,1.064,0,0,1-1.09-1.029V54.029A1.064,1.064,0,0,1,2683.1,53h19.8a1.064,1.064,0,0,1,1.09,1.029v0.939Zm-19-6.986c0-1.978,2.3-3.991,4.4-3.991a8.725,8.725,0,0,1,4,1.18,8.2,8.2,0,0,0,3.09,1.18c1.45,0,1.66-2.395,3.32-2.36A1.171,1.171,0,0,1,2700.99,45c0,1.978-2.31,3.991-4.41,3.991a8.763,8.763,0,0,1-4-1.18,8.194,8.194,0,0,0-3.09-1.18c-1.45,0-1.66,2.394-3.32,2.36A1.16,1.16,0,0,1,2684.99,47.982Zm19-10.02a1.1,1.1,0,0,1-1.14,1.048h-19.7a1.1,1.1,0,0,1-1.14-1.048v-0.9a1.1,1.1,0,0,1,1.14-1.049h19.7a1.1,1.1,0,0,1,1.14,1.049v0.9Z" transform="translate(-2672 -22)"/>
</svg>
