<svg xmlns="http://www.w3.org/2000/svg" width="74.97" height="27.313" viewBox="0 0 74.97 27.313">
  <metadata><?xpacket begin="﻿" id="W5M0MpCehiHzreSzNTczkc9d"?>
<x:xmpmeta xmlns:x="adobe:ns:meta/" x:xmptk="Adobe XMP Core 5.6-c138 79.159824, 2016/09/14-01:09:01        ">
   <rdf:RDF xmlns:rdf="http://www.w3.org/1999/02/22-rdf-syntax-ns#">
      <rdf:Description rdf:about=""/>
   </rdf:RDF>
</x:xmpmeta>
                                                                                                    
                                                                                                    
                                                                                                    
                                                                                                    
                                                                                                    
                                                                                                    
                                                                                                    
                                                                                                    
                                                                                                    
                                                                                                    
                                                                                                    
                                                                                                    
                                                                                                    
                                                                                                    
                                                                                                    
                                                                                                    
                                                                                                    
                                                                                                    
                                                                                                    
                                                                                                    
                           
<?xpacket end="w"?></metadata>
<defs>
    <style>
      .cls-1 {
        fill: #fff;
        fill-rule: evenodd;
      }
    </style>
  </defs>
  <path id="Shape_3_copy_2" data-name="Shape 3 copy 2" class="cls-1" d="M2725.58,55.46h-0.63l-1.35,2.194-1.33-2.194h-0.67l1.69,2.742v2.057h0.58V58.2Zm2.44,2.4a2.37,2.37,0,0,0,2.44,2.468A2.468,2.468,0,1,0,2728.02,57.859Zm0.62,0a1.823,1.823,0,1,1,1.82,1.919A1.838,1.838,0,0,1,2728.64,57.859Zm11.33-2.4h-0.58v2.68c0,1.09-.49,1.631-1.27,1.631a1.417,1.417,0,0,1-1.4-1.673V55.46h-0.58v2.749a1.885,1.885,0,0,0,1.98,2.111,1.809,1.809,0,0,0,1.85-2.063v-2.8Zm11.4,4.8v-4.8h-0.55v3.784l-2.98-3.784h-0.46v4.8h0.54v-3.77l2.99,3.77h0.46Zm3.69,0h2.76V59.71h-2.18v-1.6h1.91V57.558h-1.91V56.009h2.11V55.46h-2.69v4.8Zm6.18,0H2764V59.71h-2.18v-1.6h1.91V57.558h-1.91V56.009h2.11V55.46h-2.69v4.8Zm6.17,0h0.08c0.4,0,.85.014,1.17,0.014a2.438,2.438,0,0,0,2.74-2.475c0-1.255-.77-2.358-2.68-2.358-0.39,0-.91.021-1.22,0.021h-0.09v4.8Zm1.29-4.271a1.809,1.809,0,0,1,2.09,1.81,1.879,1.879,0,0,1-2.11,1.926c-0.08,0-.37-0.007-0.69-0.014v-3.7C2768.23,56,2768.42,55.988,2768.7,55.988Zm15.64-.528h-0.57l-1.08,3.818-1.27-3.818h-0.56l-1.24,3.818-1.11-3.818h-0.66l1.45,4.8h0.53l1.29-3.859,1.31,3.859h0.53Zm3.04,4.8h2.76V59.71h-2.18v-1.6h1.91V57.558h-1.91V56.009h2.11V55.46h-2.69v4.8Zm6.18-.007c0.28,0.014.86,0.027,1.28,0.027,0.99,0,1.73-.418,1.73-1.392a1.077,1.077,0,0,0-.99-1.138V57.736a1.112,1.112,0,0,0,.82-1.11c0-.665-0.39-1.186-1.53-1.186-0.45,0-1.05.021-1.31,0.027v4.785Zm1.35-2.18a0.869,0.869,0,0,1,1.08.782,0.912,0.912,0,0,1-1.12.877c-0.27,0-.58-0.014-0.73-0.027V58.072h0.77Zm-0.06-2.084a0.789,0.789,0,0,1,.97.768,0.818,0.818,0,0,1-.92.8h-0.76V56.009C2794.31,56,2794.6,55.988,2794.85,55.988Zm-72.86-21.817a1.079,1.079,0,0,1,1.17-1.133c0.75,0,.81.148,0.84,0.962v9a3.992,3.992,0,0,0,4.09,3.777A3.723,3.723,0,0,0,2732,43V34a0.809,0.809,0,0,1,1-1,0.985,0.985,0,0,1,1.01,1.146v8.9c0,4.837-3.21,5.953-5.91,5.953s-6.11-1.114-6.11-5.942V34.171Zm29,13.693A0.947,0.947,0,0,1,2750,49c-0.75,0-.97-0.185-1-1V39c-0.03-2.473-2.25-3.678-4.11-3.742a3.609,3.609,0,0,0-3.82,3.721v8.908A0.927,0.927,0,0,1,2740,49a0.868,0.868,0,0,1-1-1V39c0-4.828,3.19-5.967,5.88-5.967s6.11,1.114,6.11,5.942v8.889ZM2784,34c0-.605.11-1,0.87-1h3.99c4.88,0,7.14,3.783,7.14,8,0,4.777-2.46,7.968-6.87,7.968h-4.26c-0.76,0-.87-0.363-0.87-0.968V34Zm2,13h3c3.85,0,5-2.731,5-6,0-3.292-1.11-6-5-6h-3V47Zm-28,0h6a0.94,0.94,0,0,1,1,1,0.855,0.855,0,0,1-.88,1h-6.77a1.164,1.164,0,0,1-1.35-1V34a0.866,0.866,0,0,1,1-1l7.12,0.033a0.88,0.88,0,0,1,1,.92A1.077,1.077,0,0,1,2764,35h-6v5h6a1,1,0,0,1,0,2h-6v5Zm14,0,5.89,0.162a0.923,0.923,0,1,1,0,1.839h-6.77a0.993,0.993,0,0,1-1.1-1.077V34.11A0.93,0.93,0,0,1,2771,33l6.89,0.033a0.88,0.88,0,0,1,1,.92A0.9,0.9,0,0,1,2778,35h-6v5h6c0.58,0,.45.389,0.45,1.017S2778.58,42,2778,42h-6v5Z" transform="translate(-2721.59 -33)"/>
</svg>
