<svg xmlns="http://www.w3.org/2000/svg" width="42" height="44">
    <path fill="#555" fill-rule="evenodd" d="M41.148 21.179c-.478 0-.862-.399-.862-.891 0-10.207-8.034-18.509-17.909-18.509-.478 0-.862-.399-.862-.891 0-.493.384-.891.862-.891 10.825 0 19.633 9.102 19.633 20.291 0 .492-.387.891-.862.891zm-5.509 5.669c.273.429.354.959.219 1.454a1.759 1.759 0 0 1-.916 1.13l-15.686 7.793c-.243.12-.495.176-.748.176-.335 0-.658-.112-.939-.301l-2.209 2.285c1.401 1.173 2.965 1.322 3.616.652a1.684 1.684 0 0 1 2.438-.002 1.822 1.822 0 0 1 0 2.519c-.946.981-2.209 1.458-3.556 1.458-1.718 0-3.572-.796-5.122-2.286a8.132 8.132 0 0 1-4.326 1.249c-2.242 0-4.35-.904-5.936-2.544C.892 38.796.017 36.617.017 34.3s.875-4.495 2.461-6.134l3.226-3.332a1.823 1.823 0 0 1-.122-1.74l7.539-16.216a1.738 1.738 0 0 1 1.094-.945 1.68 1.68 0 0 1 1.408.227c8.013 5.439 14.747 12.4 20.016 20.688zM4.916 30.687A5.156 5.156 0 0 0 3.465 34.3c0 1.365.515 2.647 1.451 3.612 1.872 1.937 5.128 1.932 6.993.001l3.516-3.636a38.23 38.23 0 0 0-6.991-7.224l-3.518 3.634zm10.448-20.403L9.333 23.259a41.754 41.754 0 0 1 9.761 10.091l12.556-6.235c-4.455-6.582-9.92-12.23-16.286-16.831zm19.41 10.004c0-7.064-5.562-12.811-12.397-12.811-.478 0-.862-.398-.862-.891 0-.492.384-.891.862-.891 7.784 0 14.121 6.546 14.121 14.593 0 .492-.387.891-.862.891-.478 0-.862-.399-.862-.891z"/>
</svg>
