<svg xmlns="http://www.w3.org/2000/svg" width="68" height="76">
    <defs>
        <linearGradient id="a" x1="0%" x2="12.187%" y1="99.255%" y2="0%">
            <stop offset="0%" stop-color="#4444B9"/>
            <stop offset="100%" stop-color="#EC523E"/>
        </linearGradient>
    </defs>
    <path fill="none" d="M65.472 58.821L36.527 75.332a5.106 5.106 0 0 1-5.056 0L2.526 58.821a4.986 4.986 0 0 1-2.529-4.327V21.471c0-1.785.964-3.434 2.529-4.327L31 1c1.565-.893 4.435-.893 6 0l28.472 16.144A4.987 4.987 0 0 1 68 21.471v33.023a4.987 4.987 0 0 1-2.528 4.327zM66 23c0-1.936-1.269-4.032-3-5L38 4c-2.697-1.564-5.86-1.261-8 0 .998-.275-25 14-25 14-1.731.968-3 3.064-3 5v30c0 1.936.269 3.032 2 4l27 16c1.731.968 4.269.968 6 0l26-15c1.731-.968 3-3.064 3-5V23zM47.595 52.847l-4.059.092-2.226 3.407a1.432 1.432 0 0 1-1.2.651l-.05-.001a1.433 1.433 0 0 1-1.203-.74l-4.86-8.782-4.86 8.782a1.435 1.435 0 0 1-1.202.74l-.053.001c-.483 0-.934-.244-1.2-.651l-2.223-3.407-4.06-.092a1.434 1.434 0 0 1-1.214-.724 1.446 1.446 0 0 1-.008-1.415l4.871-8.804a12.404 12.404 0 0 1-2.474-7.433c0-6.874 5.573-12.466 12.425-12.466 6.848 0 12.419 5.592 12.419 12.466 0 2.788-.927 5.354-2.473 7.43l4.873 8.807c.244.441.241.977-.012 1.415a1.432 1.432 0 0 1-1.211.724zm-24.757-2.826l2.439.056c.471.01.908.254 1.166.65l1.338 2.046 3.414-6.168a12.378 12.378 0 0 1-5.079-2.506l-3.278 5.922zm11.161-25.136c-5.268 0-9.555 4.301-9.555 9.586 0 5.286 4.287 9.585 9.555 9.585 5.264 0 9.548-4.299 9.548-9.585 0-5.285-4.284-9.586-9.548-9.586zm7.873 19.203a12.375 12.375 0 0 1-5.074 2.515l3.413 6.17 1.337-2.046c.258-.396.696-.64 1.169-.65l2.437-.056-3.282-5.933zm-7.873-2.434c-3.948 0-7.16-3.222-7.16-7.183s3.212-7.184 7.16-7.184c3.947 0 7.157 3.223 7.157 7.184 0 3.961-3.21 7.183-7.157 7.183zm0-12.926c-3.157 0-5.725 2.576-5.725 5.743 0 3.167 2.568 5.743 5.725 5.743 3.156 0 5.721-2.576 5.721-5.743 0-3.167-2.565-5.743-5.721-5.743z"/>
    <path fill="url(#a)" d="M65.472 58.821L36.527 75.332a5.106 5.106 0 0 1-5.056 0L2.526 58.821a4.986 4.986 0 0 1-2.529-4.327V21.471c0-1.785.964-3.434 2.529-4.327L31 1c1.565-.893 4.435-.893 6 0l28.472 16.144A4.987 4.987 0 0 1 68 21.471v33.023a4.987 4.987 0 0 1-2.528 4.327zM66 23c0-1.936-1.269-4.032-3-5L38 4c-2.697-1.564-5.86-1.261-8 0 .998-.275-25 14-25 14-1.731.968-3 3.064-3 5v30c0 1.936.269 3.032 2 4l27 16c1.731.968 4.269.968 6 0l26-15c1.731-.968 3-3.064 3-5V23zM47.595 52.847l-4.059.092-2.226 3.407a1.432 1.432 0 0 1-1.2.651l-.05-.001a1.433 1.433 0 0 1-1.203-.74l-4.86-8.782-4.86 8.782a1.435 1.435 0 0 1-1.202.74l-.053.001c-.483 0-.934-.244-1.2-.651l-2.223-3.407-4.06-.092a1.434 1.434 0 0 1-1.214-.724 1.446 1.446 0 0 1-.008-1.415l4.871-8.804a12.404 12.404 0 0 1-2.474-7.433c0-6.874 5.573-12.466 12.425-12.466 6.848 0 12.419 5.592 12.419 12.466 0 2.788-.927 5.354-2.473 7.43l4.873 8.807c.244.441.241.977-.012 1.415a1.432 1.432 0 0 1-1.211.724zm-24.757-2.826l2.439.056c.471.01.908.254 1.166.65l1.338 2.046 3.414-6.168a12.378 12.378 0 0 1-5.079-2.506l-3.278 5.922zm11.161-25.136c-5.268 0-9.555 4.301-9.555 9.586 0 5.286 4.287 9.585 9.555 9.585 5.264 0 9.548-4.299 9.548-9.585 0-5.285-4.284-9.586-9.548-9.586zm7.873 19.203a12.375 12.375 0 0 1-5.074 2.515l3.413 6.17 1.337-2.046c.258-.396.696-.64 1.169-.65l2.437-.056-3.282-5.933zm-7.873-2.434c-3.948 0-7.16-3.222-7.16-7.183s3.212-7.184 7.16-7.184c3.947 0 7.157 3.223 7.157 7.184 0 3.961-3.21 7.183-7.157 7.183zm0-12.926c-3.157 0-5.725 2.576-5.725 5.743 0 3.167 2.568 5.743 5.725 5.743 3.156 0 5.721-2.576 5.721-5.743 0-3.167-2.565-5.743-5.721-5.743z"/>
</svg>
