<svg xmlns="http://www.w3.org/2000/svg" width="68" height="76">
    <defs>
        <linearGradient id="a" x1="0%" x2="12.187%" y1="99.255%" y2="0%">
            <stop offset="0%" stop-color="#4444B9"/>
            <stop offset="100%" stop-color="#EC523E"/>
        </linearGradient>
    </defs>
    <path fill="none" d="M65.472 58.821L36.527 75.332a5.106 5.106 0 0 1-5.056 0L2.526 58.821a4.986 4.986 0 0 1-2.529-4.327V21.471c0-1.785.964-3.434 2.529-4.327L31 1c1.565-.893 4.435-.893 6 0l28.472 16.144A4.987 4.987 0 0 1 68 21.471v33.023a4.987 4.987 0 0 1-2.528 4.327zM66 23c0-1.936-1.269-4.032-3-5L38 4c-2.697-1.564-5.86-1.261-8 0 .998-.275-25 14-25 14-1.731.968-3 3.064-3 5v30c0 1.936.269 3.032 2 4l27 16c1.731.968 4.269.968 6 0l26-15c1.731-.968 3-3.064 3-5V23zM49.02 47.764c-.122 1.239-1.012 5.571-7.251 6.262a3.084 3.084 0 0 1-2.898 1.975c-1.708 0-3.094-1.339-3.094-2.99 0-1.651 1.386-2.99 3.094-2.99 1.387 0 2.551.892 2.942 2.112 5.265-.711 5.291-4.51 5.288-4.679a.87.87 0 0 1 .061-.315.905.905 0 0 1-.059-.284V36.536c0-6.983-5.878-12.664-13.104-12.664C26.773 23.872 22 30.018 22 37l-.104 9.855c0 .518-.434.938-.971.938-.057 0-.107-.022-.161-.032-.055.01-.104.032-.161.032-4.193 0-7.604-3.086-7.604-6.878 0-3.691 3.229-6.703 7.263-6.866 1.207-6.707 6.48-12.053 13.737-12.053 7.418 0 13.584 5.22 14.809 12.056 4 .196 7.192 3.194 7.192 6.863 0 3.602-3.079 6.56-6.98 6.849zm-10.149 4.327c-.524 0-.951.413-.951.92 0 .507.427.92.951.92.525 0 .952-.413.952-.92 0-.507-.427-.92-.952-.92zm-23.77-11.178c0 2.546 2.083 4.347 4.859 4.611L20 37c0-.251.022-.497.033-.745-2.843.215-4.932 2.064-4.932 4.658zm33.927-4.692c.002.106.016.209.016.315v9.067c2.786-.254 4.762-2.126 4.762-4.69 0-2.582-1.968-4.459-4.778-4.692z"/>
    <path fill="url(#a)" d="M65.472 58.821L36.527 75.332a5.106 5.106 0 0 1-5.056 0L2.526 58.821a4.986 4.986 0 0 1-2.529-4.327V21.471c0-1.785.964-3.434 2.529-4.327L31 1c1.565-.893 4.435-.893 6 0l28.472 16.144A4.987 4.987 0 0 1 68 21.471v33.023a4.987 4.987 0 0 1-2.528 4.327zM66 23c0-1.936-1.269-4.032-3-5L38 4c-2.697-1.564-5.86-1.261-8 0 .998-.275-25 14-25 14-1.731.968-3 3.064-3 5v30c0 1.936.269 3.032 2 4l27 16c1.731.968 4.269.968 6 0l26-15c1.731-.968 3-3.064 3-5V23zM49.02 47.764c-.122 1.239-1.012 5.571-7.251 6.262a3.084 3.084 0 0 1-2.898 1.975c-1.708 0-3.094-1.339-3.094-2.99 0-1.651 1.386-2.99 3.094-2.99 1.387 0 2.551.892 2.942 2.112 5.265-.711 5.291-4.51 5.288-4.679a.87.87 0 0 1 .061-.315.905.905 0 0 1-.059-.284V36.536c0-6.983-5.878-12.664-13.104-12.664C26.773 23.872 22 30.018 22 37l-.104 9.855c0 .518-.434.938-.971.938-.057 0-.107-.022-.161-.032-.055.01-.104.032-.161.032-4.193 0-7.604-3.086-7.604-6.878 0-3.691 3.229-6.703 7.263-6.866 1.207-6.707 6.48-12.053 13.737-12.053 7.418 0 13.584 5.22 14.809 12.056 4 .196 7.192 3.194 7.192 6.863 0 3.602-3.079 6.56-6.98 6.849zm-10.149 4.327c-.524 0-.951.413-.951.92 0 .507.427.92.951.92.525 0 .952-.413.952-.92 0-.507-.427-.92-.952-.92zm-23.77-11.178c0 2.546 2.083 4.347 4.859 4.611L20 37c0-.251.022-.497.033-.745-2.843.215-4.932 2.064-4.932 4.658zm33.927-4.692c.002.106.016.209.016.315v9.067c2.786-.254 4.762-2.126 4.762-4.69 0-2.582-1.968-4.459-4.778-4.692z"/>
</svg>
