<svg xmlns="http://www.w3.org/2000/svg" width="68" height="76">
    <defs>
        <linearGradient id="a" x1="0%" x2="12.187%" y1="99.255%" y2="0%">
            <stop offset="0%" stop-color="#4444B9"/>
            <stop offset="100%" stop-color="#EC523E"/>
        </linearGradient>
    </defs>
    <path fill="none" d="M65.472 58.821L36.527 75.332a5.106 5.106 0 0 1-5.056 0L2.526 58.821a4.986 4.986 0 0 1-2.529-4.327V21.471c0-1.785.964-3.434 2.529-4.327L31 1c1.565-.893 4.435-.893 6 0l28.472 16.144A4.987 4.987 0 0 1 68 21.471v33.023a4.987 4.987 0 0 1-2.528 4.327zM66 23c0-1.936-1.269-4.032-3-5L38 4c-2.697-1.564-5.86-1.261-8 0 .998-.275-25 14-25 14-1.731.968-3 3.064-3 5v30c0 1.936.269 3.032 2 4l27 16c1.731.968 4.269.968 6 0l26-15c1.731-.968 3-3.064 3-5V23zM54.783 48.105a.86.86 0 0 1-1.226 0 .882.882 0 0 1 0-1.239l.228-.23a1.658 1.658 0 0 0 0-2.326l-5.7-5.757h-.001v-.001l-10.477-10.58-4.862 4.909a3.403 3.403 0 0 1-2.433 1.018c-.92 0-1.784-.362-2.434-1.018a3.471 3.471 0 0 1-1.008-2.458c0-.928.358-1.801 1.009-2.457l4.836-4.884a9.421 9.421 0 0 0-6.215-2.331 9.443 9.443 0 0 0-6.753 2.824.86.86 0 0 1-1.226 0 .882.882 0 0 1 0-1.238A11.155 11.155 0 0 1 26.5 19a11.13 11.13 0 0 1 7.466 2.867A11.13 11.13 0 0 1 41.431 19c3.014 0 5.848 1.185 7.979 3.337a11.378 11.378 0 0 1 3.305 8.058c0 2.797-1.002 5.433-2.816 7.513l5.112 5.163a3.424 3.424 0 0 1 0 4.803l-.228.231zm-3.802-17.71a9.63 9.63 0 0 0-2.797-6.82 9.443 9.443 0 0 0-6.753-2.824 9.443 9.443 0 0 0-6.753 2.824l-5.573 5.629a1.721 1.721 0 0 0-.501 1.219c0 .461.178.894.501 1.22a1.69 1.69 0 0 0 1.207.505c.456 0 .885-.18 1.207-.505l6.088-6.147.612.618.001.001.001.001a4.821 4.821 0 0 0 6.855-.001l1.166-1.178a.86.86 0 0 1 1.226 0 .88.88 0 0 1 0 1.238l-1.165 1.178c-1.362 1.375-3.176 1.996-4.964 1.912l7.333 7.405a9.618 9.618 0 0 0 2.309-6.275zm-25.583 4.802a3.53 3.53 0 0 1 1 2.742 3.455 3.455 0 0 1 2.715 1.01 3.528 3.528 0 0 1 1.001 2.733 3.457 3.457 0 0 1 2.707 1.011c.749.756 1.071 1.77.998 2.761.088-.007.173-.026.261-.026.935 0 1.814.368 2.474 1.035.17.171.318.357.447.555l7.033 7.101a3.426 3.426 0 0 1 0 4.803.859.859 0 0 1-1.226 0 .883.883 0 0 1-.001-1.239 1.658 1.658 0 0 0 0-2.326l-5.376-5.43a3.508 3.508 0 0 1-.877 1.533l-7.434 7.507A3.47 3.47 0 0 1 26.646 60a3.47 3.47 0 0 1-2.474-1.033c-.748-.756-1.07-1.77-.998-2.761-.087.007-.172.026-.261.026a3.457 3.457 0 0 1-2.474-1.035 3.527 3.527 0 0 1-1.025-2.498c0-.08.018-.156.023-.234-.078.005-.153.023-.231.023a3.462 3.462 0 0 1-2.475-1.035 3.528 3.528 0 0 1-1.024-2.499c0-.082.018-.161.023-.243-.08.006-.159.024-.239.024a3.474 3.474 0 0 1-2.475-1.034 3.564 3.564 0 0 1 0-4.997l7.435-7.507a3.478 3.478 0 0 1 4.947 0zm0 22.532a1.756 1.756 0 0 0 2.496 0l7.434-7.507c.333-.337.517-.785.517-1.261 0-.475-.184-.923-.517-1.26a1.75 1.75 0 0 0-2.496 0l-7.434 7.507a1.798 1.798 0 0 0 0 2.521zm-3.733-3.77a1.75 1.75 0 0 0 2.496 0l7.434-7.507a1.798 1.798 0 0 0 0-2.521 1.752 1.752 0 0 0-1.248-.521c-.43 0-.854.169-1.192.484-.015.016-.026.035-.042.052l-7.434 7.507c-.016.016-.035.027-.051.042a1.775 1.775 0 0 0 .037 2.464zm-3.708-3.745c.334.337.777.522 1.249.522.447 0 .864-.178 1.191-.483.016-.017.026-.036.042-.053l7.434-7.507c.016-.016.035-.027.052-.042a1.79 1.79 0 0 0-.038-2.464 1.747 1.747 0 0 0-2.468-.018l-.021.025-7.434 7.507-.025.021a1.778 1.778 0 0 0-.498 1.232c0 .476.183.924.516 1.26zm-3.715-3.751a1.753 1.753 0 0 0 2.469.019l.02-.026 7.435-7.507c.007-.008.017-.013.025-.021a1.793 1.793 0 0 0-.019-2.493 1.755 1.755 0 0 0-2.495 0l-7.435 7.508a1.798 1.798 0 0 0 0 2.52zm32.655 6.448c0-.439-.17-.852-.478-1.163l-7.182-7.253a.882.882 0 0 1 0-1.238.86.86 0 0 1 1.226 0l7.182 7.253c.636.641.986 1.494.986 2.401 0 .907-.35 1.76-.986 2.401a.86.86 0 0 1-1.226 0 .882.882 0 0 1 0-1.238c.308-.311.478-.724.478-1.163zm3.13-2.48a1.658 1.658 0 0 0 0-2.326l-7.182-7.253a.882.882 0 0 1 0-1.238.86.86 0 0 1 1.226 0l7.182 7.252a3.425 3.425 0 0 1 .001 4.803l-.079.079a.861.861 0 0 1-1.226 0 .88.88 0 0 1 0-1.238l.078-.079z"/>
    <path fill="url(#a)" d="M65.472 58.821L36.527 75.332a5.106 5.106 0 0 1-5.056 0L2.526 58.821a4.986 4.986 0 0 1-2.529-4.327V21.471c0-1.785.964-3.434 2.529-4.327L31 1c1.565-.893 4.435-.893 6 0l28.472 16.144A4.987 4.987 0 0 1 68 21.471v33.023a4.987 4.987 0 0 1-2.528 4.327zM66 23c0-1.936-1.269-4.032-3-5L38 4c-2.697-1.564-5.86-1.261-8 0 .998-.275-25 14-25 14-1.731.968-3 3.064-3 5v30c0 1.936.269 3.032 2 4l27 16c1.731.968 4.269.968 6 0l26-15c1.731-.968 3-3.064 3-5V23zM54.783 48.105a.86.86 0 0 1-1.226 0 .882.882 0 0 1 0-1.239l.228-.23a1.658 1.658 0 0 0 0-2.326l-5.7-5.757h-.001v-.001l-10.477-10.58-4.862 4.909a3.403 3.403 0 0 1-2.433 1.018c-.92 0-1.784-.362-2.434-1.018a3.471 3.471 0 0 1-1.008-2.458c0-.928.358-1.801 1.009-2.457l4.836-4.884a9.421 9.421 0 0 0-6.215-2.331 9.443 9.443 0 0 0-6.753 2.824.86.86 0 0 1-1.226 0 .882.882 0 0 1 0-1.238A11.155 11.155 0 0 1 26.5 19a11.13 11.13 0 0 1 7.466 2.867A11.13 11.13 0 0 1 41.431 19c3.014 0 5.848 1.185 7.979 3.337a11.378 11.378 0 0 1 3.305 8.058c0 2.797-1.002 5.433-2.816 7.513l5.112 5.163a3.424 3.424 0 0 1 0 4.803l-.228.231zm-3.802-17.71a9.63 9.63 0 0 0-2.797-6.82 9.443 9.443 0 0 0-6.753-2.824 9.443 9.443 0 0 0-6.753 2.824l-5.573 5.629a1.721 1.721 0 0 0-.501 1.219c0 .461.178.894.501 1.22a1.69 1.69 0 0 0 1.207.505c.456 0 .885-.18 1.207-.505l6.088-6.147.612.618.001.001.001.001a4.821 4.821 0 0 0 6.855-.001l1.166-1.178a.86.86 0 0 1 1.226 0 .88.88 0 0 1 0 1.238l-1.165 1.178c-1.362 1.375-3.176 1.996-4.964 1.912l7.333 7.405a9.618 9.618 0 0 0 2.309-6.275zm-25.583 4.802a3.53 3.53 0 0 1 1 2.742 3.455 3.455 0 0 1 2.715 1.01 3.528 3.528 0 0 1 1.001 2.733 3.457 3.457 0 0 1 2.707 1.011c.749.756 1.071 1.77.998 2.761.088-.007.173-.026.261-.026.935 0 1.814.368 2.474 1.035.17.171.318.357.447.555l7.033 7.101a3.426 3.426 0 0 1 0 4.803.859.859 0 0 1-1.226 0 .883.883 0 0 1-.001-1.239 1.658 1.658 0 0 0 0-2.326l-5.376-5.43a3.508 3.508 0 0 1-.877 1.533l-7.434 7.507A3.47 3.47 0 0 1 26.646 60a3.47 3.47 0 0 1-2.474-1.033c-.748-.756-1.07-1.77-.998-2.761-.087.007-.172.026-.261.026a3.457 3.457 0 0 1-2.474-1.035 3.527 3.527 0 0 1-1.025-2.498c0-.08.018-.156.023-.234-.078.005-.153.023-.231.023a3.462 3.462 0 0 1-2.475-1.035 3.528 3.528 0 0 1-1.024-2.499c0-.082.018-.161.023-.243-.08.006-.159.024-.239.024a3.474 3.474 0 0 1-2.475-1.034 3.564 3.564 0 0 1 0-4.997l7.435-7.507a3.478 3.478 0 0 1 4.947 0zm0 22.532a1.756 1.756 0 0 0 2.496 0l7.434-7.507c.333-.337.517-.785.517-1.261 0-.475-.184-.923-.517-1.26a1.75 1.75 0 0 0-2.496 0l-7.434 7.507a1.798 1.798 0 0 0 0 2.521zm-3.733-3.77a1.75 1.75 0 0 0 2.496 0l7.434-7.507a1.798 1.798 0 0 0 0-2.521 1.752 1.752 0 0 0-1.248-.521c-.43 0-.854.169-1.192.484-.015.016-.026.035-.042.052l-7.434 7.507c-.016.016-.035.027-.051.042a1.775 1.775 0 0 0 .037 2.464zm-3.708-3.745c.334.337.777.522 1.249.522.447 0 .864-.178 1.191-.483.016-.017.026-.036.042-.053l7.434-7.507c.016-.016.035-.027.052-.042a1.79 1.79 0 0 0-.038-2.464 1.747 1.747 0 0 0-2.468-.018l-.021.025-7.434 7.507-.025.021a1.778 1.778 0 0 0-.498 1.232c0 .476.183.924.516 1.26zm-3.715-3.751a1.753 1.753 0 0 0 2.469.019l.02-.026 7.435-7.507c.007-.008.017-.013.025-.021a1.793 1.793 0 0 0-.019-2.493 1.755 1.755 0 0 0-2.495 0l-7.435 7.508a1.798 1.798 0 0 0 0 2.52zm32.655 6.448c0-.439-.17-.852-.478-1.163l-7.182-7.253a.882.882 0 0 1 0-1.238.86.86 0 0 1 1.226 0l7.182 7.253c.636.641.986 1.494.986 2.401 0 .907-.35 1.76-.986 2.401a.86.86 0 0 1-1.226 0 .882.882 0 0 1 0-1.238c.308-.311.478-.724.478-1.163zm3.13-2.48a1.658 1.658 0 0 0 0-2.326l-7.182-7.253a.882.882 0 0 1 0-1.238.86.86 0 0 1 1.226 0l7.182 7.252a3.425 3.425 0 0 1 .001 4.803l-.079.079a.861.861 0 0 1-1.226 0 .88.88 0 0 1 0-1.238l.078-.079z"/>
</svg>
