<svg xmlns="http://www.w3.org/2000/svg" width="68" height="76">
    <defs>
        <linearGradient id="a" x1="0%" x2="12.187%" y1="99.255%" y2="0%">
            <stop offset="0%" stop-color="#4444B9"/>
            <stop offset="100%" stop-color="#EC523E"/>
        </linearGradient>
    </defs>
    <path fill="none" d="M65.472 58.821L36.527 75.332a5.106 5.106 0 0 1-5.056 0L2.526 58.821a4.986 4.986 0 0 1-2.529-4.327V21.471c0-1.785.964-3.434 2.529-4.327L31 1c1.565-.893 4.435-.893 6 0l28.472 16.144A4.987 4.987 0 0 1 68 21.471v33.023a4.987 4.987 0 0 1-2.528 4.327zM66 23c0-1.936-1.269-4.032-3-5L38 4c-2.697-1.564-5.86-1.261-8 0 .998-.275-25 14-25 14-1.731.968-3 3.064-3 5v30c0 1.936.269 3.032 2 4l27 16c1.731.968 4.269.968 6 0l26-15c1.731-.968 3-3.064 3-5V23zM33.997 59c-3.887 0-7.576-3.091-13.44-9.18-1.59-1.686-2.546-4.612-2.554-6.473V29.056c-.006-2.215 1.585-4.394 3.697-5.066 7.923-2.656 16.654-2.665 24.621.004 2.052.657 3.675 2.883 3.675 5.062v14.279c-.011 1.875-.964 4.805-2.546 6.473C41.579 55.907 37.89 59 33.997 59zm13.138-29.944c0-.924-.808-2.024-1.697-2.307a35.863 35.863 0 0 0-11.435-1.87 35.85 35.85 0 0 0-11.422 1.865c-.942.3-1.719 1.354-1.716 2.309v14.286c.005 1.237.757 3.417 1.752 4.472 5.179 5.375 8.529 8.294 11.38 8.294 2.856 0 6.207-2.92 11.396-8.309.984-1.039 1.733-3.22 1.742-4.469V29.056zM33.997 53.934c-2.292 0-6.123-3.777-9.851-7.647-.554-.59-1.124-2.219-1.135-2.966v-13.91c0-.315.201-.593.495-.689a33.908 33.908 0 0 1 20.985-.003.724.724 0 0 1 .497.689v13.927c-.011.75-.595 2.377-1.151 2.968-3.734 3.875-7.546 7.631-9.84 7.631zm9.56-23.995a32.47 32.47 0 0 0-19.115.004v13.368c.006.434.472 1.692.732 1.97 2.077 2.154 6.942 7.206 8.823 7.206 1.884 0 6.721-5.023 8.789-7.167.305-.323.766-1.594.771-1.997V29.939zm-9.868 13.614c-.259.32-.642.513-1.053.529h-.053c-.392 0-.766-.161-1.037-.449l-2.348-2.493a1.46 1.46 0 0 1 .051-2.046 1.419 1.419 0 0 1 2.023.05l1.233 1.307 4.152-5.126a1.423 1.423 0 0 1 2.015-.201 1.46 1.46 0 0 1 .199 2.038l-5.182 6.391z"/>
    <path fill="url(#a)" d="M65.472 58.821L36.527 75.332a5.106 5.106 0 0 1-5.056 0L2.526 58.821a4.986 4.986 0 0 1-2.529-4.327V21.471c0-1.785.964-3.434 2.529-4.327L31 1c1.565-.893 4.435-.893 6 0l28.472 16.144A4.987 4.987 0 0 1 68 21.471v33.023a4.987 4.987 0 0 1-2.528 4.327zM66 23c0-1.936-1.269-4.032-3-5L38 4c-2.697-1.564-5.86-1.261-8 0 .998-.275-25 14-25 14-1.731.968-3 3.064-3 5v30c0 1.936.269 3.032 2 4l27 16c1.731.968 4.269.968 6 0l26-15c1.731-.968 3-3.064 3-5V23zM33.997 59c-3.887 0-7.576-3.091-13.44-9.18-1.59-1.686-2.546-4.612-2.554-6.473V29.056c-.006-2.215 1.585-4.394 3.697-5.066 7.923-2.656 16.654-2.665 24.621.004 2.052.657 3.675 2.883 3.675 5.062v14.279c-.011 1.875-.964 4.805-2.546 6.473C41.579 55.907 37.89 59 33.997 59zm13.138-29.944c0-.924-.808-2.024-1.697-2.307a35.863 35.863 0 0 0-11.435-1.87 35.85 35.85 0 0 0-11.422 1.865c-.942.3-1.719 1.354-1.716 2.309v14.286c.005 1.237.757 3.417 1.752 4.472 5.179 5.375 8.529 8.294 11.38 8.294 2.856 0 6.207-2.92 11.396-8.309.984-1.039 1.733-3.22 1.742-4.469V29.056zM33.997 53.934c-2.292 0-6.123-3.777-9.851-7.647-.554-.59-1.124-2.219-1.135-2.966v-13.91c0-.315.201-.593.495-.689a33.908 33.908 0 0 1 20.985-.003.724.724 0 0 1 .497.689v13.927c-.011.75-.595 2.377-1.151 2.968-3.734 3.875-7.546 7.631-9.84 7.631zm9.56-23.995a32.47 32.47 0 0 0-19.115.004v13.368c.006.434.472 1.692.732 1.97 2.077 2.154 6.942 7.206 8.823 7.206 1.884 0 6.721-5.023 8.789-7.167.305-.323.766-1.594.771-1.997V29.939zm-9.868 13.614c-.259.32-.642.513-1.053.529h-.053c-.392 0-.766-.161-1.037-.449l-2.348-2.493a1.46 1.46 0 0 1 .051-2.046 1.419 1.419 0 0 1 2.023.05l1.233 1.307 4.152-5.126a1.423 1.423 0 0 1 2.015-.201 1.46 1.46 0 0 1 .199 2.038l-5.182 6.391z"/>
</svg>
