<svg xmlns="http://www.w3.org/2000/svg" width="113" height="26">
    <path fill="#FFF" fill-rule="evenodd" d="M102.545 25.355h-6.49c-1.158 0-1.649-.748-1.649-1.709V1.71c0-.961.491-1.709 1.649-1.709h6.069c7.438 0 10.872 5.687 10.872 12.382 0 7.585-3.749 12.972-10.451 12.972zm-.587-22.406h-4.066v18.868h4.066c5.855 0 7.553-4.243 7.553-9.434 0-5.227-1.627-9.434-7.553-9.434zM85.416 22.488c.889 0 1.528.463 1.528 1.46 0 .996-.639 1.46-1.528 1.46H75.107c-1.173 0-1.67-.748-1.67-1.709V1.762c0-.961.497-1.709 1.67-1.709h10.309c.889 0 1.528.463 1.528 1.46 0 .998-.639 1.46-1.528 1.46h-8.853v8.297h8.178c.888 0 1.528.464 1.528 1.461 0 .997-.64 1.46-1.528 1.46h-8.178v8.297h8.853zm-20.969 0c.889 0 1.528.463 1.528 1.46 0 .996-.639 1.46-1.528 1.46H54.138c-1.173 0-1.67-.748-1.67-1.709V1.762c0-.961.497-1.709 1.67-1.709h10.309c.889 0 1.528.463 1.528 1.46 0 .998-.639 1.46-1.528 1.46h-8.853v8.297h8.178c.888 0 1.528.464 1.528 1.461 0 .997-.64 1.46-1.528 1.46h-8.178v8.297h8.853zm-21.764 2.913c-1.142 0-1.666-.463-1.715-1.756l.025-14.151c-.049-3.927-2.984-5.807-5.822-5.909-2.766-.099-5.821 1.895-5.821 5.909v14.145c.096 1.45-.844 1.769-1.735 1.769-1.162 0-1.751-.841-1.751-1.812V9.488c0-7.666 5.186-9.435 9.295-9.435s9.295 1.769 9.295 9.435v14.114c0 .965-.569 1.799-1.771 1.799zm-33.086.007c-4.108 0-9.295-1.769-9.295-9.434V1.86c0-.965.569-1.8 1.772-1.8 1.141 0 1.666.463 1.714 1.756l-.024 14.151c.048 3.927 2.983 5.808 5.821 5.909 2.766.099 5.822-1.895 5.822-5.909V1.822C15.31.373 16.25.053 17.142.053c1.162 0 1.75.841 1.75 1.813v14.108c0 7.665-5.186 9.434-9.295 9.434z"/>
</svg>
